<?xml version="1.0" encoding="utf-8"?>
<!-- Generator: Adobe Illustrator 16.0.0, SVG Export Plug-In . SVG Version: 6.00 Build 0)  -->
<!DOCTYPE svg PUBLIC "-//W3C//DTD SVG 1.1//EN" "http://www.w3.org/Graphics/SVG/1.1/DTD/svg11.dtd">
<svg version="1.1" id="Layer_1" xmlns="http://www.w3.org/2000/svg" xmlns:xlink="http://www.w3.org/1999/xlink" x="0px" y="0px"
	 width="100px" height="100px" viewBox="0 0 100 100" enable-background="new 0 0 100 100" xml:space="preserve">
<g>
	<path d="M50,5.236c-24.683,0-44.765,20.081-44.765,44.765c0,0.832,0.027,1.657,0.072,2.479c0,0.004-0.002,0.006-0.002,0.01
		c0,0.009,0.005,0.016,0.005,0.023c0.613,11.03,5.244,21.001,12.442,28.487c0.063,0.091,0.136,0.168,0.224,0.233
		C26.111,89.572,37.458,94.764,50,94.764c20.019,0,37.009-13.209,42.716-31.369c0.213-0.183,0.355-0.445,0.355-0.748
		c0-0.1-0.031-0.189-0.059-0.281c1.133-3.928,1.752-8.074,1.752-12.363C94.765,25.317,74.684,5.236,50,5.236z M91.14,61.648H62.303
		V53.49h6.664v4.328c0,0.554,0.448,1,1,1h14.786c0.553,0,1-0.446,1-1V53.49h6.857C92.383,56.295,91.884,59.021,91.14,61.648z
		 M80.968,79.447H62.303v-4.603V63.648H90.52C88.506,69.609,85.214,74.984,80.968,79.447z M40.196,79.447v-3.603h15.824v3.603
		H40.196z M36.611,79.447v-3.603h1.585v3.603H36.611z M19.033,79.447c-4.247-4.463-7.538-9.838-9.552-15.799h25.13v11.196v4.603
		H19.033z M19.981,55.433h4.871v1.983h-4.871V55.433z M25.303,50.954c-0.281,0.185-0.45,0.499-0.45,0.835v1.644h-4.871v-1.784
		c0-0.32-0.155-0.625-0.417-0.812c-1.329-0.954-2.122-2.495-2.122-4.121c0-2.798,2.276-5.074,5.074-5.074s5.074,2.276,5.074,5.074
		C27.592,48.425,26.735,50.01,25.303,50.954z M17.981,53.49v4.926c0,0.552,0.448,1,1,1h6.871c0.552,0,1-0.448,1-1V53.49h7.758v8.158
		H8.86c-0.745-2.627-1.243-5.354-1.471-8.158H17.981z M60.303,26.156v47.689H36.611V26.156H60.303z M38.715,24.156
		c0.501-4.686,4.477-8.349,9.294-8.349c4.816,0,8.793,3.663,9.294,8.349H38.715z M58.021,75.846h2.282v3.602h-2.282V75.846z
		 M83.753,44.03v3.926h-5.396V44.03H83.753z M70.966,49.956h12.787v6.862H70.966V49.956z M76.36,47.956h-5.395V44.03h5.395V47.956z
		 M21.057,81.447h13.555v1.166c0,0.553,0.448,1,1,1s1-0.447,1-1v-1.166h23.691v1.166c0,0.553,0.448,1,1,1s1-0.447,1-1v-1.166h16.642
		c-7.621,7.021-17.789,11.317-28.943,11.317C38.846,92.766,28.679,88.469,21.057,81.447z"/>
	<path d="M42.682,56.32c-0.552,0-1,0.446-1,1v9.56c0,0.552,0.448,1,1,1s1-0.448,1-1v-9.56C43.682,56.768,43.233,56.32,42.682,56.32z
		"/>
	<path d="M46.266,56.32c-0.552,0-1,0.446-1,1v9.56c0,0.552,0.448,1,1,1s1-0.448,1-1v-9.56C47.266,56.768,46.818,56.32,46.266,56.32z
		"/>
	<path d="M49.851,56.32c-0.552,0-1,0.446-1,1v9.56c0,0.552,0.448,1,1,1s1-0.448,1-1v-9.56C50.851,56.768,50.403,56.32,49.851,56.32z
		"/>
	<path d="M53.436,56.32c-0.552,0-1,0.446-1,1v9.56c0,0.552,0.448,1,1,1s1-0.448,1-1v-9.56C54.436,56.768,53.987,56.32,53.436,56.32z
		"/>
	<path d="M41.954,39.867l6.504,4.35c0,0.021-0.006,0.04-0.006,0.061c0,2.804,2.28,5.083,5.084,5.083
		c2.803,0,5.082-2.279,5.082-5.083c0-2.755-2.207-4.993-4.944-5.068l-4.03-6.185c-0.066-0.102-0.152-0.18-0.244-0.249
		c-0.611-2.651-2.987-4.637-5.822-4.637c-3.297,0-5.979,2.682-5.979,5.979C37.599,36.852,39.444,39.157,41.954,39.867z
		 M56.618,44.277c0,1.7-1.383,3.083-3.082,3.083c-1.701,0-3.083-1.383-3.083-3.083c0-1.699,1.382-3.083,3.083-3.083
		C55.235,41.195,56.618,42.579,56.618,44.277z M49.229,36.054l2.313,3.551c-1.148,0.492-2.069,1.402-2.6,2.53l-3.499-2.339
		C47.218,39.211,48.623,37.817,49.229,36.054z M43.577,30.14c2.194,0,3.979,1.785,3.979,3.979c0,2.193-1.785,3.979-3.979,3.979
		c-2.193,0-3.979-1.785-3.979-3.979C39.599,31.925,41.384,30.14,43.577,30.14z"/>
	<path d="M43.577,36.313c1.21,0,2.195-0.984,2.195-2.194c0-1.211-0.984-2.195-2.195-2.195s-2.194,0.983-2.194,2.195
		C41.383,35.33,42.367,36.313,43.577,36.313z M43.577,33.924c0.107,0,0.195,0.087,0.195,0.195c0,0.216-0.39,0.216-0.39,0
		C43.383,34.011,43.471,33.924,43.577,33.924z"/>
	<path d="M51.556,44.277c0,1.093,0.889,1.98,1.979,1.98c1.092,0,1.98-0.888,1.98-1.98c0-1.092-0.889-1.979-1.98-1.979
		C52.444,42.298,51.556,43.187,51.556,44.277z M53.534,45.258l-0.019-0.98c0-0.011,0.009-0.02,0.021-0.02L53.534,45.258z"/>
	<path d="M22.766,37.893c0.552,0,1-0.448,1-1v-2.773c0-0.553-0.448-1-1-1s-1,0.447-1,1v2.773
		C21.766,37.444,22.214,37.893,22.766,37.893z"/>
	<path d="M12.688,38.771l2.152,2.152c0.194,0.194,0.45,0.293,0.707,0.293c0.256,0,0.512-0.099,0.706-0.293
		c0.392-0.392,0.392-1.023,0-1.414l-2.151-2.152c-0.392-0.391-1.023-0.391-1.414,0C12.297,37.748,12.297,38.38,12.688,38.771z"/>
	<path d="M29.338,41.641c0.256,0,0.512-0.098,0.706-0.293l2.608-2.608c0.391-0.391,0.391-1.022,0-1.414
		c-0.391-0.391-1.022-0.391-1.414,0l-2.607,2.608c-0.392,0.391-0.392,1.023,0,1.414C28.826,41.544,29.081,41.641,29.338,41.641z"/>
</g>
</svg>
